<svg id="Layer_1" data-name="Layer 1" xmlns="http://www.w3.org/2000/svg" viewBox="0 0 1000 1000"><defs><style>.cls-1{fill:#2576bc;}</style></defs><path class="cls-1" d="M698.59,529.07c-26,8.28-52.65,16.71-77.55,28.16-9.77,4.13-19.59,10.26-28.8,16.18-3.83-13.44.06-28.41,10.15-36.25a37.18,37.18,0,0,0,28,7.17c20.87-2.39,32.62-21.43,40.65-41,15-7.11,30.09-14.09,43.74-23.19-2.7,15.61-8.36,31.79-13.61,46.54-.64,1.54-.1,1.7-2.56,2.39M599.4,586.19c27.25-11.34,63.44-24.09,91.57-32.87-11.47,19.55-59.29,59.21-91.57,32.87m65.8-80.51c-4.89,11-12.24,24.3-22.65,30.38-10.22,6.49-27.51,6-37.22-1.64,15.73-12.56,40.78-21.21,59.87-28.74m16.14-88.26c-.73,20.53-3.25,38.95-8.82,57.54-6.66,4.14-60.15,30.91-73.08,51.32-12.93-39,61.17-82.6,81.9-108.86m5.19-6.09c5.74-6.86,17.57-27.69,19.14-32.39,9.06-21.52,9.48-45.54,9.06-55.3a169.81,169.81,0,0,1,6,30.19c4.14,31.65,1.84,65.95-2.09,98.34-12.83,8.34-26.18,14.31-39.72,20.11,4.37-19.67,7.94-38.9,7.65-60.95M653.26,630.4c-10.35,10.2-23.63,22-34.62,33.06-21.48-7.09-46.57-9.69-69.45-5.22-.11-7.92.35-14.55,2.89-22.17,31.39-6.28,67.84-4.54,101.18-5.67M638.73,693c-11.56,10.3-34,17.22-55.65,11.45l24.72-20c10.46,4,20.27,5.43,30.93,8.55m-60,10s-19.6-10.49-28.57-35.91c17.58,1.45,36.93,10,52.78,15.45,0,0-16.71,14.06-24.21,20.46m-50.13,13.79a67.7,67.7,0,0,0-1.28-44.76c.81-.58,12.49-5.15,18.26-4.72,10.27,27.52,28.7,36.64,30.24,38.21-13,9.92-30.73,15.4-47.22,11.27m-6-2.5c-23.41-20.55-2.81-38.4.33-39.81,3.66,11.67,4,28.43-.33,39.81m-59.24,1.61c27.25-20.32,12.81-39.15,2.85-48.47,2.2-4.28,4.64-9.55,9.9-14.28,5.86,5.3,8.18,13.34,8.94,22.33,1.34.05,1.18,0,3.74.08.53-9.63-3.62-19-9.22-26.23,3.46-3.19,13.14-11.61,16.1-12.91a113.59,113.59,0,0,1,13.63,14.24s-11.58,11.52-11.12,25.24l3.53.15c1.67-7.2,1-12,10.76-21.35a41.71,41.71,0,0,1,8.67,15c-5.76,4.78-29.11,25.36-.39,48.53-30.65,46.26-57.11,0-57.39-2.35m1-43.87c20.51,19.55,3.94,35.21-2.69,39.68a68.14,68.14,0,0,1,2.69-39.68m-9,41.86c-16.72,2.53-34.57-5.52-46-14.71,24.23-13.56,31.14-34,33-36.09A45.71,45.71,0,0,1,460,669.29c-4.89,10.79-9.44,29.35-4.66,44.64M383.92,674.3c16.62-4.49,34.93-11.11,53.38-11.41.06,2.55-15.07,26.2-30.84,33.42-7.52-7.23-22.54-22-22.54-22m-36.43,8c2.53-.27,21.93-4.08,31.31-6.45,7.13,7.05,15.66,15,23.24,21.92,0,0-32.85,5.72-54.55-15.47m-9.69-63.49c22.46,1.81,86,6.77,100,12.83,2.12,6.52,2.09,15.62,1.45,22.26-22-5.43-48.19-5.94-69.83.17,0,0-21.8-24.13-31.59-35.26m105.74,14.39c10.23,2.51,20.68,9.94,29.23,16.3a53.82,53.82,0,0,0-10.14,14.94c-5.41-4-9.58-6-19.19-9.31a98.68,98.68,0,0,0,.1-21.93M406,569c7-16.94,3.32-29.76-5.06-45.72,25-33.06-6.66-78.34-29.49-101.24-11.88-12.57-40-43.42-42.18-47-5.26-53.23,20.46-100.31,22.36-104.14-12.74,27.54-19.18,66.41,53.42,156.5,12.86,16,30.5,34,29.64,57.52-.36,21.14-17.35,38.13-15,57.21,1.82,12.66,8.87,23.32,22.38,25.89,14.4,2.73,26.14-1.41,35.28-11.46,29.4-38.26-15.89-66.25-16.06-104.44-.06-14.51,8.34-23.31,21-27.94,8.86-2.55,20.53-5.2,27.58,1.89a42.47,42.47,0,0,0-13.72,4.26l.07.19a4.38,4.38,0,0,0-8,2.46l.43,1.87a3.9,3.9,0,0,0,4.74,2.44l.29-.07a10.35,10.35,0,0,0,2.89-1.26c5.78-3.5,12.68-4.77,15.87-5.19v0c27.44-2,19.94,12.73,19.94,12.73s-21.22-11.95-41.85,7.66C459.75,485.43,600.65,553.29,495,630.59c-4.43-4-18-13.1-27-16.84-.8,1-1.25,1.91-1.88,2.86a111.71,111.71,0,0,1,25.45,16.24c-6.45,4.33-9.84,7.64-14.91,12.5a104.69,104.69,0,0,0-34.15-23.24C435.81,601.3,422.06,583.44,406,569m-3.5-3.3c-24.71-18.59-65.3-37.44-104.8-52.48-3.56-9.34-10.15-43.5-10.57-48.92,11.26,9.19,28.1,19.86,42.35,27,18.45,59.7,57.54,43.42,65.57,38,10,9.76,11.87,22.76,7.45,36.38m-96.89-26.72c20.13,7.29,83.69,36.56,88.67,39.48-6.6,6.8-48.39,21.83-88.67-39.48m-10.49-222.8c-.84,11.09.41,38.78,24.93,81.77-1.14,20.34.52,41.35,3.33,60.83-13.49-6.63-25.21-15.05-38.07-22.56-1.12-17.18,1.08-101.3,9.81-120m97,210.06c-2.85,2.65-40.51,19.75-57.27-32.68,18.68,8.51,41.88,19.4,57.27,32.68m-67-121.91c11,17.93,90.1,77.93,73.53,113.77-19.63-27.23-67.29-53.17-69.15-55.57-3.66-18-4.73-38.62-4.38-58.2m221.24,233c-.84,7.2-1.66,10.13-1.31,22-7,1.77-14.24,4-19.88,7.87A63.2,63.2,0,0,0,516,651.4s14.81-10.56,30.27-14.16m205.12-62c13.49,18.9-47.12,35.12-73.58,35.92,0,0,55-53.61,73.58-35.92M713,667.13c2.05,8.27-22.72,27.17-55.24,11.35,31.51-22.9,53.62-22.17,55.24-11.35M275,652.74c3.12-21.76,45.29,4.49,54.49,13.44-13.92,6.84-54.14,6.54-54.49-13.44m-32.8-94.37c13.76-19.44,57.58,23.18,72.11,39.28-8.28-1.21-83.92-17.72-72.11-39.28m464.87-32.29c11.34-30.53,10-33.76,14-49.34,36.16-19.09,44.44-66.07,44-71.17-.75-14,0-6.26-1.41-1.48-4,13.92-17.14,29.61-29,38.77-3,1.84-6.64,5.06-10.43,6.67.86-12.9,14.88-94.34-17-157.12l-.2.18c10.21,31.52-3.52,66-22.38,89.42-.39-4.42-7.55-85.88-43.46-126.85l-3-3.76c5.43,8.66,12,58.32-16.59,106.55-14.51,22-34.37,41.16-51.72,60.7-16.37,20.56-24.19,40.49-16.5,76.35,2.54,9.68,6.59,24.45,10.94,27.83,2.57,1,2.19-2.23,1.33-4.26-4.36-9.37-11-46.53,30.86-94.86,70.32-81.17,50.79-152.33,50.79-152.33,11.28,12,29.73,79.42,31.72,116.33C657.13,413,578.26,469.43,590.29,514.2a63.57,63.57,0,0,0,6.57,16.52c-10.41,16.69-13.92,29.19-8.43,45.48-15.74,12.72-32.87,30.08-40.07,50-12.67,4.72-24.76,10.88-35.83,20.86-4.34-4.85-7.87-8.85-13-12.77,3.3-1.92,34.8-18.9,47.19-32,12-12.5,19.25-29.79,14.72-48.84-8-33.56-83-77.67-67.12-97.06,8.3-10.34,26.93-15.21,37.72-7.72h0l.22.15.2.13h0l2.28,1.89c5-7.29,10.09-26-19.12-25.79-2.33-6-9.49-8.19-15.75-9-18.7-1.26-36.68,7.09-43.55,23.3-8.71,20.44,17,65.5,15.34,94.61,1.09,24.82-48.6,41.33-47.85,2.64.33-17.38,40.87-64.48,3.34-118.9-14-18.71-30.52-36.1-44.46-53.9-50.88-65-20.57-113.18-21.15-113.22-49.65,64.16-38.15,117.17-39.4,114.71-3.27-6-31.21-39.39-17.63-82.63,0,0-30.65,38.53-25.18,149.84-5.31-3.23-37.36-32.19-36.11-53.92,0,0-7.4,47.8,37.66,82.1,3.48,17.54,4.55,32.65,10.28,49.93-17.41-6.3-44.36-26.85-53.2-46.06-1.22-3.53,5.22,43.72,59.39,70.79,43.54,74.72,92.25,54.79,102.21,45,14.09,5.4,34.71,35.07,35.74,39.21-28.59-9.07-75.12-19.84-111.23-21.05-20.4-20.54-66-63.71-85.47-42.89-20.83,26.79,51.84,57.88,89.67,61.86,10.17,10.77,25.13,25.63,35.12,38-11.55,2.88-13.37,3.71-29.34,9.37-54.22-44.45-62.41-14.22-62.41-14.22C263.4,687,333.34,685,341.48,683.05c20.07,20.8,49.68,22.65,63.95,18.09,21.16,19.57,43.65,18.94,50.54,17.22,23,53,62.75,27.06,71.94,2.76,20,5.25,36.88-2.83,51.8-13.53,10.06,3.51,38.38,8.57,64.86-13.26,67.55,12.95,74.64-22.94,71.28-29.86-9.83-20.07-51,2.77-62.56,12.49-11.83-5-17.11-8.31-28.56-11.66,11.83-12.91,25.57-24.59,37.91-35.31,136.68-9.83,114.4-120.38,6.29-18.45-31.42-.27-80,4-113.41,12.89-.28-2.74,20.89-29.48,38.74-36.64,33.31,30,83,.1,104.91-37.48,32.87-12.43,55.09-37,63.25-62.38l1.62-4.41c-6.9,12.55-31.1,35.93-57,42.56"/></svg>