<svg id="Layer_1" data-name="Layer 1" xmlns="http://www.w3.org/2000/svg" viewBox="0 0 1000 1000"><defs><style>.cls-1{fill:#2576bc;}</style></defs><path class="cls-1" d="M208.09,478.46c-14.06,0-18.28-13.07-18.28-26s4.22-26.15,18.28-26.15,18.45,13.08,18.45,26.15-4.25,26-18.45,26m0-69c-23.71,0-39.07,17-39.07,43,0,25.84,15.36,42.85,39.07,42.85s39.24-17,39.24-42.85c0-26-15.38-43-39.24-43"/><polygon class="cls-1" points="297.1 493.1 323.61 411.64 301.2 411.64 285.13 471.29 269.05 411.64 246.65 411.64 273.16 493.1 297.1 493.1"/><path class="cls-1" d="M124.6,592.09c27.61,0,37.44-18.28,37.44-39.79V493.09h-9.48v57c.13,24.3-9.69,33.53-28,33.53s-28.08-9.23-27.95-33.53v-57H87.17V552.3c0,21.51,9.83,39.79,37.43,39.79"/><rect class="cls-1" x="253.36" y="514.36" width="9.23" height="75.56"/><polygon class="cls-1" points="312.27 589.92 341.42 514.36 331.17 514.36 307.1 580.7 283.02 514.36 272.77 514.36 301.92 589.92 312.27 589.92"/><rect class="cls-1" x="527.9" y="514.36" width="9.22" height="75.56"/><path class="cls-1" d="M426.76,493.11V449.62c0-16.54,4.83-23.31,16.1-23.31,9.66,0,13.33,6.62,13.33,20v46.79H477V443c0-20.18-5.58-33.57-27.68-33.57-8.78,0-18.7,4.48-23.57,13.55V411.64H406v81.47h20.79"/><path class="cls-1" d="M511.08,391.45l-20.79,7.22v13h-7.91v15h7.91v42.14c0,19.74,11,25.3,23.76,25.3a80.35,80.35,0,0,0,11.16-.62V476a32.09,32.09,0,0,1-5.46.44c-7,0-8.67-1.89-8.67-17.32V426.62h14.13v-15H511.08V391.45"/><path class="cls-1" d="M185.66,589.92V545.84c.29-14.78,9.07-25.91,23.7-25.91,14.94,0,19.18,9.81,19.18,22.84v47.15h9.23V541.31c0-18-7.72-29.14-27.67-29.14-10.35,0-21.56,6.5-24.91,15.57V514.36h-8.77v75.56h9.24"/><path class="cls-1" d="M433,589.92V549.64c0-15.65,10.48-28.25,28.11-28.25v-9.22c-14.62,0-23.88,7.76-28.57,19.92V514.36h-8.77v75.56H433"/><path class="cls-1" d="M474.58,532.08c0-10,8.59-12.41,19-12.41A43.62,43.62,0,0,1,512,524.26v-8.93a71.57,71.57,0,0,0-19.5-3.17c-14,0-27.37,5.4-27.37,19.92,0,24.23,41.42,19.8,41.42,38.32,0,9.8-10.31,14.19-19.92,14.19a51.87,51.87,0,0,1-21.54-5v9.22a68.09,68.09,0,0,0,22.18,3.26c12.33,0,28.75-5.53,28.75-21.69,0-25.88-41.4-23.46-41.4-38.32"/><path class="cls-1" d="M622.91,589.92c-7.06,17.37-15.81,27-26.81,28.18L593,610.91c11.41-1.67,16.75-12.16,20.54-21h-5.3l-26.47-68.37H566.3V568c0,8.12.29,14.74,6.73,14.74,1.76,0,4.81,0,7.18-.22v7.76c-2.71.17-5.56.24-7.45.24-12,0-15.68-7.71-15.68-22.16V521.55h-9.89v-7.19h9.89V497.77h9.3v16.59h23l26.48,69.25,27.45-69.25H653.6l-30.69,75.56"/><path class="cls-1" d="M631.7,411.64l-19.14,59.65-19.25-59.65h-17.2c-14.48,0-20.26,8.1-22.54,15v-15H533.81v81.45H554.6V456.55c0-17.92,7.14-26.44,22-26.74L598,493.09h8.23c-3.24,9.69-5.35,14.56-10,17.71l6.79,17.75h0c10.26-3.33,18.39-20.2,22.8-32.42l27.66-84.49H631.7"/><path class="cls-1" d="M147.05,459.5C144,469.45,137,476,126,476c-19.66,0-27.06-17.57-27.06-35,0-18.3,7.4-35.87,27.06-35.87,10.37,0,19.47,7.2,21.48,16.89l19.82-6.88c-5.52-18.93-22.06-29.34-41.3-29.34C95.14,385.81,77,410,77,441c0,30.15,18.13,54.3,48.95,54.3,19.75,0,34.74-10.93,40.93-28.92l-19.84-6.89"/><path class="cls-1" d="M360.33,426.31c10.09,0,15,6,16.54,17.33H343.05c.3-6.3,4.11-17.33,17.28-17.33m16.78,43.84c-2.42,4.3-8.35,8.31-15.47,8.31-11.56,0-18-6.46-18.59-20.65h54.6c1.48-25.05-11-48.36-36.73-48.36-23,0-38.65,18.59-38.65,43,0,25.22,14.78,42.85,38.65,42.85,14.57,0,25.73-5.95,32.36-19.55l-16.17-5.61"/><path class="cls-1" d="M377.29,519.93c14.93,0,23.56,13,24,27H352.39c1.48-13.76,9.81-27,24.9-27m22,50.23c-3.67,8.58-10.65,14.18-22,14.18-17.72,0-24.75-16.24-24.9-29.71h58.13c.72-21.24-8.94-42.46-33.23-42.46-24,0-34.13,20.07-34.13,40,0,21.5,10.12,39.94,34.13,39.94,15.8,0,25.33-6.87,30.38-19h0l-8.42-2.92"/><path class="cls-1" d="M891.23,513.87c-12.4,4-25.12,8-37,13.44A95,95,0,0,0,840.48,535c-1.83-6.41,0-13.55,4.84-17.29a17.81,17.81,0,0,0,13.36,3.42c10-1.14,15.56-10.23,19.4-19.57,7.14-3.39,14.35-6.72,20.87-11.07-1.29,7.45-4,15.17-6.49,22.21-.31.74-.05.81-1.23,1.14M843.9,541.13c13-5.41,30.27-11.49,43.7-15.68-5.48,9.33-28.3,28.26-43.7,15.68m31.4-38.42c-2.34,5.25-5.84,11.6-10.81,14.5-4.88,3.1-13.13,2.85-17.77-.78,7.51-6,19.47-10.12,28.58-13.72m7.7-42.12a106.55,106.55,0,0,1-4.21,27.46c-3.18,2-28.71,14.75-34.88,24.49-6.16-18.62,29.2-39.42,39.09-51.95m2.48-2.91c2.74-3.27,8.38-13.21,9.13-15.46,4.32-10.27,4.52-21.73,4.32-26.39a80.61,80.61,0,0,1,2.85,14.41c2,15.11.88,31.48-1,46.93a121.34,121.34,0,0,1-18.95,9.6c2.08-9.38,3.78-18.56,3.65-29.09M869.6,562.23c-4.94,4.87-11.28,10.48-16.53,15.78-10.24-3.39-22.22-4.62-33.14-2.49a30.18,30.18,0,0,1,1.38-10.58c15-3,32.38-2.17,48.29-2.71m-6.94,29.89c-5.51,4.91-16.2,8.22-26.55,5.46L847.9,588c5,1.91,9.68,2.59,14.76,4.08m-28.61,4.78a32.61,32.61,0,0,1-13.64-17.14c8.4.69,17.63,4.77,25.19,7.38,0,0-8,6.7-11.55,9.76m-23.92,6.58a32.33,32.33,0,0,0-.62-21.36c.39-.28,6-2.46,8.72-2.25a35.53,35.53,0,0,0,14.43,18.23c-6.18,4.74-14.66,7.35-22.53,5.38m-2.88-1.19c-11.17-9.81-1.34-18.33.16-19,1.74,5.57,1.9,13.57-.16,19m-28.27.77c13-9.7,6.11-18.69,1.36-23.13a21.24,21.24,0,0,1,4.72-6.82c2.8,2.53,3.91,6.37,4.27,10.66.64,0,.56,0,1.79,0,.25-4.59-1.73-9-4.4-12.51,1.65-1.53,6.27-5.55,7.68-6.17a53.71,53.71,0,0,1,6.5,6.8s-5.52,5.5-5.3,12.05l1.68.07c.8-3.44.5-5.7,5.14-10.19a19.89,19.89,0,0,1,4.14,7.17c-2.75,2.28-13.9,12.1-.19,23.16-14.63,22.07-27.26,0-27.39-1.12m.46-20.94c9.78,9.33,1.88,16.8-1.28,18.93a32.49,32.49,0,0,1,1.28-18.93m-4.31,20c-8,1.21-16.5-2.64-22-7,11.56-6.47,14.86-16.21,15.74-17.22a22,22,0,0,1,8.43,2.94c-2.33,5.15-4.51,14-2.22,21.31m-34.07-18.92c7.93-2.14,16.67-5.3,25.47-5.44,0,1.22-7.19,12.5-14.71,16-3.59-3.45-10.76-10.51-10.76-10.51M723.67,587c1.21-.13,10.47-2,15-3.08,3.4,3.36,7.47,7.15,11.09,10.46,0,0-15.68,2.73-26-7.38m-4.62-30.3c10.72.86,41.05,3.23,47.71,6.12,1,3.11,1,7.46.69,10.63-10.5-2.6-23-2.84-33.33.07,0,0-10.4-11.51-15.07-16.82m50.46,6.86c4.89,1.2,9.87,4.75,14,7.78a25.89,25.89,0,0,0-4.84,7.13c-2.58-1.93-4.57-2.86-9.16-4.44a47,47,0,0,0,0-10.47M751.58,532.9c3.31-8.08,1.58-14.2-2.42-21.81,11.94-15.78-3.18-37.39-14.07-48.32-5.67-6-19.08-20.72-20.13-22.45-2.51-25.4,9.76-47.87,10.67-49.7-6.08,13.15-9.16,31.7,25.49,74.69,6.14,7.63,14.56,16.24,14.15,27.45-.17,10.1-8.28,18.2-7.17,27.31.87,6,4.24,11.13,10.68,12.35,6.87,1.31,12.48-.67,16.84-5.47,14-18.26-7.58-31.61-7.67-49.84,0-6.92,4-11.12,10-13.33,4.23-1.22,9.8-2.48,13.16.9a20.13,20.13,0,0,0-6.54,2l0,.09a2.1,2.1,0,0,0-3.83,1.18l.21.89a1.86,1.86,0,0,0,2.26,1.16l.14,0a4.93,4.93,0,0,0,1.38-.6,20.63,20.63,0,0,1,7.57-2.48h0c13.09-.94,9.51,6.08,9.51,6.08s-10.12-5.71-20,3.65c-14.67,16.39,52.57,48.77,2.13,85.66a60.8,60.8,0,0,0-12.88-8c-.38.49-.6.91-.9,1.36a53.08,53.08,0,0,1,12.15,7.75,46.83,46.83,0,0,0-7.12,6A49.83,49.83,0,0,0,769,558.28c-3.19-9.94-9.75-18.46-17.43-25.38m-1.67-1.57c-11.8-8.87-31.17-17.87-50-25.05-1.7-4.45-4.84-20.75-5-23.34a119,119,0,0,0,20.21,12.87c8.8,28.49,27.46,20.72,31.29,18.16,4.79,4.66,5.66,10.86,3.56,17.36m-46.24-12.75c9.6,3.48,39.94,17.45,42.31,18.84-3.15,3.25-23.09,10.42-42.31-18.84m-5-106.33c-.4,5.29.19,18.51,11.9,39a147.85,147.85,0,0,0,1.59,29c-6.44-3.16-12-7.18-18.17-10.76-.54-8.2.52-48.35,4.68-57.29M745,512.5c-1.36,1.26-19.33,9.42-27.33-15.6,8.92,4.07,20,9.26,27.33,15.6m-32-58.18c5.24,8.56,43,37.19,35.09,54.29-9.37-13-32.11-25.37-33-26.52A131.35,131.35,0,0,1,713,454.32M818.55,565.5a51.28,51.28,0,0,0-.62,10.47c-3.33.85-6.8,1.9-9.49,3.76a30.16,30.16,0,0,0-4.33-7.47s7.06-5,14.44-6.76m97.89-29.57c6.44,9-22.48,16.76-35.11,17.14,0,0,26.24-25.59,35.11-17.14m-18.32,43.83c1,4-10.84,13-26.37,5.42,15-10.93,25.59-10.58,26.37-5.42m-209-6.87c1.49-10.38,21.62,2.15,26,6.42-6.64,3.26-25.84,3.12-26-6.42m-15.65-45c6.56-9.28,27.48,11.06,34.41,18.74-4-.57-40.05-8.45-34.41-18.74m221.85-15.41c5.42-14.58,4.78-16.12,6.71-23.55,17.25-9.11,21.2-31.53,21-34-.36-6.68,0-3-.67-.7-1.91,6.64-8.19,14.13-13.85,18.5-1.45.88-3.17,2.41-5,3.19.41-6.16,7.1-45-8.11-75l-.1.08c4.87,15.05-1.68,31.51-10.68,42.68-.19-2.11-3.61-41-20.74-60.54l-1.45-1.79c2.59,4.13,5.73,27.83-7.91,50.85-6.93,10.5-16.41,19.64-24.69,29-7.81,9.81-11.54,19.32-7.87,36.44,1.21,4.61,3.14,11.66,5.22,13.28,1.23.5,1.05-1.07.63-2-2.08-4.47-5.24-22.2,14.73-45.27,33.56-38.74,24.24-72.7,24.24-72.7,5.38,5.72,14.19,37.91,15.14,55.52-10.44,12-48.09,39-42.34,60.37a30,30,0,0,0,3.14,7.88c-5,8-6.65,13.93-4,21.71-7.51,6.07-15.69,14.35-19.12,23.85a51.69,51.69,0,0,0-17.1,10,42.61,42.61,0,0,0-6.22-6.09c1.58-.92,16.61-9,22.52-15.26,5.74-6,9.19-14.22,7-23.31-3.81-16-39.61-37.06-32-46.32,4-4.93,12.85-7.26,18-3.68h0l.1.07.1.07h0l1.08.9c2.38-3.48,4.82-12.41-9.12-12.3-1.12-2.85-4.53-3.91-7.52-4.29-8.92-.6-17.5,3.38-20.78,11.12-4.16,9.75,8.13,31.26,7.32,45.15.52,11.84-23.19,19.72-22.84,1.26.16-8.29,19.51-30.77,1.6-56.74C755,451.82,747.1,443.52,740.45,435c-24.28-31-9.82-54-10.1-54-23.69,30.62-18.2,55.92-18.8,54.74-1.56-2.87-14.9-18.8-8.41-39.43,0,0-14.63,18.39-12,71.51-2.53-1.54-17.83-15.36-17.23-25.73,0,0-3.53,22.81,18,39.18,1.66,8.37,2.17,15.58,4.91,23.83-8.31-3-21.18-12.82-25.39-22-.59-1.68,2.49,20.87,28.34,33.79,20.78,35.66,44,26.15,48.78,21.46,6.72,2.58,16.56,16.74,17.06,18.72-13.65-4.33-35.85-9.47-53.09-10.05-9.74-9.8-31.51-30.4-40.79-20.47-9.94,12.79,24.74,27.63,42.8,29.53,4.85,5.13,12,12.23,16.76,18.13-5.52,1.38-6.38,1.77-14,4.47-25.87-21.21-29.78-6.78-29.78-6.78-3.91,17.33,29.47,16.4,33.35,15.46,9.58,9.93,23.71,10.81,30.53,8.63,10.09,9.34,20.83,9,24.12,8.22,11,25.32,29.94,12.92,34.33,1.32,9.53,2.5,17.6-1.35,24.72-6.46a32.63,32.63,0,0,0,31-6.33c32.24,6.18,35.62-11,34-14.25-4.69-9.57-24.34,1.32-29.85,6-5.65-2.36-8.17-4-13.63-5.56,5.64-6.16,12.2-11.74,18.09-16.85,65.22-4.7,54.59-57.45,3-8.81-15-.13-38.17,1.89-54.12,6.15-.14-1.3,10-14.07,18.48-17.48,15.9,14.33,39.64.05,50.07-17.89,15.69-5.93,26.29-17.66,30.18-29.77l.78-2.1c-3.29,6-14.84,17.14-27.19,20.31"/></svg>