<?xml version="1.0" encoding="UTF-8"?>
<!DOCTYPE svg PUBLIC "-//W3C//DTD SVG 1.1//EN" "http://www.w3.org/Graphics/SVG/1.1/DTD/svg11.dtd">
<svg xmlns="http://www.w3.org/2000/svg" version="1.1" width="2000px" height="1200px" style="shape-rendering:geometricPrecision; text-rendering:geometricPrecision; image-rendering:optimizeQuality; fill-rule:evenodd; clip-rule:evenodd" xmlns:xlink="http://www.w3.org/1999/xlink">
<g><path style="opacity:0.996" fill="#c7002b" d="M 1670.5,286.5 C 1718.13,282.869 1764.13,289.702 1808.5,307C 1870.29,335.048 1904.79,382.882 1912,450.5C 1912.38,457.518 1912.88,464.518 1913.5,471.5C 1869.15,471.651 1824.82,470.984 1780.5,469.5C 1777.82,432.002 1758.15,408.835 1721.5,400C 1693.57,392.813 1666.24,394.48 1639.5,405C 1624.97,411.891 1615.47,423.058 1611,438.5C 1609.16,456.989 1615.66,471.822 1630.5,483C 1645.13,492.437 1660.79,499.77 1677.5,505C 1711.05,515.738 1744.71,526.071 1778.5,536C 1807.91,544.372 1835.91,556.039 1862.5,571C 1914.25,604.115 1937.42,651.615 1932,713.5C 1929.33,765.025 1906.83,805.192 1864.5,834C 1833.12,853.129 1799.12,865.129 1762.5,870C 1715.84,875.951 1669.17,875.951 1622.5,870C 1575.5,862.424 1536.33,840.924 1505,805.5C 1484.56,778.203 1471.89,747.537 1467,713.5C 1465.1,700.855 1463.6,688.189 1462.5,675.5C 1507.83,674.5 1553.16,674.167 1598.5,674.5C 1599.3,696.7 1605.8,717.034 1618,735.5C 1633.49,754 1653.32,764.834 1677.5,768C 1702.65,771.226 1727.65,770.226 1752.5,765C 1788.6,754.893 1801.77,731.726 1792,695.5C 1788.27,687.108 1782.44,680.608 1774.5,676C 1763.39,669.963 1751.72,665.296 1739.5,662C 1689.4,650.076 1640.4,634.743 1592.5,616C 1554.51,602.007 1523.34,578.84 1499,546.5C 1473.03,505.356 1467.03,461.356 1481,414.5C 1493.24,374.606 1517.07,343.773 1552.5,322C 1589.26,301.354 1628.6,289.521 1670.5,286.5 Z"/></g>
<g><path style="opacity:0.912" fill="#000000" d="M 1879.5,308.5 C 1896.5,308.5 1913.5,308.5 1930.5,308.5C 1930.5,312.5 1930.5,316.5 1930.5,320.5C 1924.5,320.5 1918.5,320.5 1912.5,320.5C 1912.5,338.833 1912.5,357.167 1912.5,375.5C 1907.83,375.5 1903.17,375.5 1898.5,375.5C 1898.5,357.167 1898.5,338.833 1898.5,320.5C 1892.17,320.5 1885.83,320.5 1879.5,320.5C 1879.5,316.5 1879.5,312.5 1879.5,308.5 Z"/></g>
<g><path style="opacity:0.912" fill="#000000" d="M 1999.5,308.5 C 1999.5,330.833 1999.5,353.167 1999.5,375.5C 1995.17,375.5 1990.83,375.5 1986.5,375.5C 1986.67,360.496 1986.5,345.496 1986,330.5C 1982.34,345.479 1978.84,360.479 1975.5,375.5C 1970.83,375.5 1966.17,375.5 1961.5,375.5C 1958.32,360.111 1954.82,344.777 1951,329.5C 1950.5,344.83 1950.33,360.163 1950.5,375.5C 1946.17,375.5 1941.83,375.5 1937.5,375.5C 1937.5,353.167 1937.5,330.833 1937.5,308.5C 1944.42,308.188 1951.26,308.521 1958,309.5C 1961.2,323.309 1964.87,336.975 1969,350.5C 1972.35,336.785 1975.85,323.118 1979.5,309.5C 1986.13,308.503 1992.8,308.17 1999.5,308.5 Z"/></g>
<g><path style="opacity:0.998" fill="#c6002b" d="M -0.5,309.5 C 47.5,309.5 95.5,309.5 143.5,309.5C 143.5,494.833 143.5,680.167 143.5,865.5C 95.5,865.5 47.5,865.5 -0.5,865.5C -0.5,680.167 -0.5,494.833 -0.5,309.5 Z"/></g>
<g><path style="opacity:0.995" fill="#c7002b" d="M 202.5,309.5 C 345.5,309.5 488.5,309.5 631.5,309.5C 631.5,347.5 631.5,385.5 631.5,423.5C 535.167,423.5 438.833,423.5 342.5,423.5C 342.5,457.833 342.5,492.167 342.5,526.5C 438.833,526.5 535.167,526.5 631.5,526.5C 631.5,563.5 631.5,600.5 631.5,637.5C 535.167,637.5 438.833,637.5 342.5,637.5C 342.5,675.167 342.5,712.833 342.5,750.5C 438.833,750.5 535.167,750.5 631.5,750.5C 631.5,788.833 631.5,827.167 631.5,865.5C 488.5,865.5 345.5,865.5 202.5,865.5C 202.5,680.167 202.5,494.833 202.5,309.5 Z"/></g>
<g><path style="opacity:0.997" fill="#c7002b" d="M 685.5,309.5 C 733.167,309.5 780.833,309.5 828.5,309.5C 828.5,454.833 828.5,600.167 828.5,745.5C 915.167,745.5 1001.83,745.5 1088.5,745.5C 1088.5,785.5 1088.5,825.5 1088.5,865.5C 954.167,865.5 819.833,865.5 685.5,865.5C 685.5,680.167 685.5,494.833 685.5,309.5 Z"/></g>
<g><path style="opacity:0.994" fill="#c6002b" d="M 984.5,309.5 C 1138.17,309.5 1291.83,309.5 1445.5,309.5C 1445.5,347.5 1445.5,385.5 1445.5,423.5C 1392.5,423.5 1339.5,423.5 1286.5,423.5C 1286.5,570.833 1286.5,718.167 1286.5,865.5C 1239.17,865.5 1191.83,865.5 1144.5,865.5C 1144.5,718.167 1144.5,570.833 1144.5,423.5C 1091.17,423.5 1037.83,423.5 984.5,423.5C 984.5,385.5 984.5,347.5 984.5,309.5 Z"/></g>
</svg>
