<svg id="Ebene_1" data-name="Ebene 1" xmlns="http://www.w3.org/2000/svg" xmlns:xlink="http://www.w3.org/1999/xlink" viewBox="0 0 320 160"><defs><style>.cls-1{fill:url(#radial-gradient);}.cls-2{fill:#fff;}.cls-3{fill:#2e5dad;}.cls-4{fill:#2e5dac;}.cls-5{fill:#5e5e5d;}.cls-6{fill:none;stroke:#5e5e5d;stroke-width:1.46px;}</style><radialGradient id="radial-gradient" cx="260.68" cy="80.15" r="49.18" gradientUnits="userSpaceOnUse"><stop offset="0" stop-color="#fff"/><stop offset="1" stop-color="#2e5dad"/></radialGradient></defs><title>8Zeichenfläche 1</title><path class="cls-1" d="M309.86,80.15A49.18,49.18,0,1,1,260.68,31,49.17,49.17,0,0,1,309.86,80.15Z"/><polygon class="cls-2" points="310.17 75.82 211.19 84.48 211.01 80.15 310.35 80.15 310.17 75.82"/><polygon class="cls-2" points="308.66 67.29 212.7 93.01 211.76 88.78 309.6 71.53 308.66 67.29"/><polygon class="cls-2" points="305.7 59.16 215.66 101.14 214 97.14 307.36 63.16 305.7 59.16"/><polygon class="cls-2" points="301.38 51.66 219.99 108.64 217.66 104.98 303.7 55.31 301.38 51.66"/><polygon class="cls-2" points="295.81 45.03 225.56 115.27 222.63 112.08 298.74 48.22 295.81 45.03"/><polygon class="cls-2" points="289.18 39.46 232.19 120.84 228.76 118.2 292.61 42.1 289.18 39.46"/><polygon class="cls-2" points="281.67 35.13 239.69 125.17 235.84 123.17 285.52 37.13 281.67 35.13"/><polygon class="cls-2" points="273.54 32.17 247.82 128.13 243.7 126.82 277.67 33.47 273.54 32.17"/><polygon class="cls-2" points="265.01 30.66 256.35 129.63 252.06 129.06 269.31 31.23 265.01 30.66"/><polygon class="cls-2" points="256.35 30.66 265.01 129.63 260.68 129.82 260.68 30.47 256.35 30.66"/><polygon class="cls-2" points="247.82 32.17 273.54 128.13 269.31 129.06 252.06 31.23 247.82 32.17"/><polygon class="cls-2" points="239.69 35.13 281.67 125.17 277.67 126.82 243.69 33.47 239.69 35.13"/><polygon class="cls-2" points="232.19 39.46 289.17 120.84 285.52 123.17 235.84 37.13 232.19 39.46"/><polygon class="cls-2" points="225.56 45.03 295.81 115.27 292.61 118.2 228.75 42.09 225.56 45.03"/><polygon class="cls-2" points="219.99 51.66 301.37 108.64 298.73 112.08 222.63 48.22 219.99 51.66"/><polygon class="cls-2" points="215.66 59.16 305.7 101.14 303.7 104.98 217.66 55.31 215.66 59.16"/><polygon class="cls-2" points="212.7 67.29 308.66 93 307.36 97.14 214 63.15 212.7 67.29"/><polygon class="cls-2" points="211.2 75.82 310.17 84.48 309.6 88.77 211.76 71.52 211.2 75.82"/><path class="cls-3" d="M266.51,80.14a5.83,5.83,0,1,1-5.83-5.82A5.84,5.84,0,0,1,266.51,80.14Z"/><path class="cls-4" d="M10.87,52.49a1.56,1.56,0,0,1,1.63-1.6,1.62,1.62,0,0,1,0,3.23A1.56,1.56,0,0,1,10.87,52.49Zm.54,20V57.29a.3.3,0,0,1,.31-.32h1.6a.3.3,0,0,1,.31.32V72.52a.3.3,0,0,1-.31.32h-1.6A.3.3,0,0,1,11.41,72.52Z"/><path class="cls-4" d="M25.7,57.19a.31.31,0,0,1,.16.38l-.38,1.6c-.06.19-.19.25-.41.19a2.91,2.91,0,0,0-1.47-.16c-1.82.06-3.17,1.75-3.17,4v9.34a.3.3,0,0,1-.31.32h-1.6a.3.3,0,0,1-.31-.32V57.29a.3.3,0,0,1,.31-.32h1.6a.3.3,0,0,1,.31.32v2c0,.13.1.13.13,0a3.83,3.83,0,0,1,3.54-2.47A3.18,3.18,0,0,1,25.7,57.19Z"/><path class="cls-4" d="M38.87,62V72.52a.3.3,0,0,1-.32.32H37a.3.3,0,0,1-.31-.32V71.39c0-.09-.06-.15-.16-.06a5.26,5.26,0,0,1-4.2,1.76c-2.22,0-4.73-1-4.73-4.55S30,63.43,33.6,63.43h2.92a.13.13,0,0,0,.12-.12v-1.2c0-2.06-1.06-3.44-3.17-3.44a2.75,2.75,0,0,0-3,2.22.3.3,0,0,1-.35.28l-1.72-.09a.26.26,0,0,1-.29-.31c.29-2.42,2.45-4.05,5.36-4.05C36.86,56.72,38.87,58.85,38.87,62Zm-2.23,5.89V65.34a.13.13,0,0,0-.12-.12H33.73c-2.29,0-3.92,1.1-3.92,3.2,0,1.91,1.31,2.72,3,2.72C34.7,71.14,36.64,70.05,36.64,67.88Z"/><path class="cls-4" d="M53.73,62V72.52a.3.3,0,0,1-.32.32h-1.6a.3.3,0,0,1-.31-.32V62.27c0-2.19-1.22-3.57-3.13-3.57s-3.27,1.41-3.27,3.63V72.52a.3.3,0,0,1-.31.32h-1.6a.3.3,0,0,1-.31-.32V57.29a.3.3,0,0,1,.31-.32h1.6a.3.3,0,0,1,.31.32v1.16c0,.09.07.15.16.06A4.4,4.4,0,0,1,49,56.75C51.94,56.75,53.73,58.73,53.73,62Z"/><path class="cls-4" d="M70.31,58.73h-3a.14.14,0,0,0-.13.12v9.38c0,2,.82,2.63,2.45,2.63h.53a.3.3,0,0,1,.32.31v1.32a.28.28,0,0,1-.32.31c-.31,0-.63,0-1,0-2.48,0-4.17-.73-4.17-3.92V58.85a.13.13,0,0,0-.12-.12H63.35a.29.29,0,0,1-.31-.31V57.29a.3.3,0,0,1,.31-.32h1.57a.13.13,0,0,0,.12-.12V53.27a.3.3,0,0,1,.31-.31h1.54a.29.29,0,0,1,.31.31v3.58a.14.14,0,0,0,.13.12h3a.3.3,0,0,1,.31.32v1.13A.29.29,0,0,1,70.31,58.73Z"/><path class="cls-4" d="M82.66,68.85c.06-.18.19-.28.37-.22l1.29.35c.19.06.28.16.22.38a5.18,5.18,0,0,1-5.33,3.73,5.08,5.08,0,0,1-5.39-4.36,20.82,20.82,0,0,1-.28-3.86,31.76,31.76,0,0,1,.12-3.51,5.59,5.59,0,0,1,11.07.44c.09,1.1.12,2.35.12,3.57a.3.3,0,0,1-.31.32H75.86c-.07,0-.13,0-.13.12,0,.88,0,1.67.09,2.29a3.33,3.33,0,0,0,3.48,3A3.43,3.43,0,0,0,82.66,68.85Zm-6.8-7.21c-.07.6-.1,1.32-.13,2.14,0,.09.06.12.13.12H82.5a.12.12,0,0,0,.13-.12c0-.76-.07-1.51-.13-2.07a3.23,3.23,0,0,0-3.35-3A3.19,3.19,0,0,0,75.86,61.64Z"/><path class="cls-4" d="M88.61,72.52V51.21a.3.3,0,0,1,.32-.32h1.6a.3.3,0,0,1,.31.32V72.52a.3.3,0,0,1-.31.32h-1.6A.3.3,0,0,1,88.61,72.52Z"/><path class="cls-4" d="M103.91,68.85a.29.29,0,0,1,.38-.22l1.28.35c.19.06.28.16.22.38a5.18,5.18,0,0,1-5.33,3.73,5.08,5.08,0,0,1-5.39-4.36,20.82,20.82,0,0,1-.28-3.86,31.76,31.76,0,0,1,.12-3.51A5.59,5.59,0,0,1,106,61.8c.09,1.1.13,2.35.13,3.57a.3.3,0,0,1-.32.32H97.11a.12.12,0,0,0-.13.12,21.41,21.41,0,0,0,.1,2.29,3.33,3.33,0,0,0,3.48,3A3.43,3.43,0,0,0,103.91,68.85Zm-6.8-7.21c-.06.6-.1,1.32-.13,2.14a.12.12,0,0,0,.13.12h6.64c.07,0,.13,0,.13-.12,0-.76-.06-1.51-.13-2.07a3.23,3.23,0,0,0-3.35-3A3.19,3.19,0,0,0,97.11,61.64Z"/><path class="cls-4" d="M109.71,68.51a31,31,0,0,1-.19-3.64c0-1.38.1-2.6.19-3.6a5.24,5.24,0,0,1,5.52-4.55c3,0,5.17,1.82,5.51,4.17l.1.66a.29.29,0,0,1-.28.35L119,62a.32.32,0,0,1-.35-.28,1.5,1.5,0,0,0,0-.38,3.39,3.39,0,0,0-6.68.38,34.42,34.42,0,0,0,0,6.42,3.21,3.21,0,0,0,3.33,3,3.18,3.18,0,0,0,3.35-2.69c0-.1,0-.16,0-.25s.16-.32.35-.29l1.56.13c.16,0,.29.12.29.28v.13a1.21,1.21,0,0,1-.07.37c-.28,2.45-2.47,4.27-5.51,4.27A5.22,5.22,0,0,1,109.71,68.51Z"/><path class="cls-4" d="M124.16,68.51a26.76,26.76,0,0,1-.22-3.64,25.49,25.49,0,0,1,.22-3.57,5.62,5.62,0,0,1,11,0,26.87,26.87,0,0,1,.22,3.6,27.17,27.17,0,0,1-.22,3.64,5.62,5.62,0,0,1-11,0Zm8.9-.41a31,31,0,0,0,.13-3.2,29.59,29.59,0,0,0-.13-3.19,3.4,3.4,0,0,0-6.77,0c-.09.87-.12,2-.12,3.19s0,2.32.12,3.2a3.4,3.4,0,0,0,6.77,0Z"/><path class="cls-4" d="M158.3,62V72.52a.3.3,0,0,1-.31.32h-1.57a.3.3,0,0,1-.32-.32V62.3c0-2.25-1.22-3.6-3-3.6S150,60.05,150,62.24V72.52a.3.3,0,0,1-.31.32h-1.6a.3.3,0,0,1-.32-.32V62.3c0-2.25-1.22-3.6-3-3.6s-3.11,1.35-3.11,3.54V72.52a.3.3,0,0,1-.31.32h-1.6a.3.3,0,0,1-.31-.32V57.29a.3.3,0,0,1,.31-.32h1.6a.3.3,0,0,1,.31.32v1.09c0,.1.06.13.16,0a4.49,4.49,0,0,1,3.67-1.67,4.15,4.15,0,0,1,4,2.39c0,.09.09.09.15,0a4.5,4.5,0,0,1,4.2-2.39C156.57,56.75,158.3,58.73,158.3,62Z"/><path class="cls-5" d="M22.47,90.11a1.56,1.56,0,0,1,1.63-1.6,1.62,1.62,0,0,1,0,3.23A1.56,1.56,0,0,1,22.47,90.11Zm.53,20V94.9a.3.3,0,0,1,.32-.31h1.6a.29.29,0,0,1,.31.31v15.24a.29.29,0,0,1-.31.31h-1.6A.3.3,0,0,1,23,110.14Z"/><path class="cls-5" d="M40.65,99.57v10.57a.29.29,0,0,1-.31.31h-1.6a.29.29,0,0,1-.31-.31V99.89c0-2.2-1.22-3.58-3.14-3.58S32,97.72,32,100v10.19a.29.29,0,0,1-.31.31h-1.6a.29.29,0,0,1-.31-.31V94.9a.29.29,0,0,1,.31-.31h1.6a.29.29,0,0,1,.31.31v1.16c0,.1.07.16.16.07a4.39,4.39,0,0,1,3.73-1.76C38.87,94.37,40.65,96.35,40.65,99.57Z"/><path class="cls-5" d="M55.76,99.57v10.57a.29.29,0,0,1-.31.31h-1.6a.29.29,0,0,1-.31-.31V99.89c0-2.2-1.23-3.58-3.14-3.58s-3.26,1.41-3.26,3.64v10.19a.29.29,0,0,1-.31.31h-1.6a.29.29,0,0,1-.31-.31V94.9a.29.29,0,0,1,.31-.31h1.6a.29.29,0,0,1,.31.31v1.16c0,.1.06.16.16.07A4.38,4.38,0,0,1,51,94.37C54,94.37,55.76,96.35,55.76,99.57Z"/><path class="cls-5" d="M59.84,106.13a25.42,25.42,0,0,1-.22-3.64,24,24,0,0,1,.22-3.57,5.2,5.2,0,0,1,5.55-4.58,5.17,5.17,0,0,1,5.48,4.54,30,30,0,0,1,0,7.25,5.21,5.21,0,0,1-5.52,4.57A5.19,5.19,0,0,1,59.84,106.13Zm8.9-.41c.09-.91.12-2,.12-3.2s0-2.32-.12-3.2a3.4,3.4,0,0,0-6.77,0,30.26,30.26,0,0,0-.13,3.2,29.9,29.9,0,0,0,.13,3.2,3.4,3.4,0,0,0,6.77,0Z"/><path class="cls-5" d="M77.8,110.2,73.25,94.94c-.06-.22.07-.35.29-.35h1.75a.36.36,0,0,1,.35.28L79,107.13c0,.09.12.09.16,0l3.32-12.26a.34.34,0,0,1,.34-.28l1.79,0c.22,0,.35.13.28.35L80.31,110.2a.35.35,0,0,1-.35.25H78.14A.33.33,0,0,1,77.8,110.2Z"/><path class="cls-5" d="M98.08,99.61v10.53a.29.29,0,0,1-.31.31h-1.6a.3.3,0,0,1-.32-.31V109c0-.09-.06-.16-.15-.06a5.27,5.27,0,0,1-4.2,1.75c-2.23,0-4.74-1-4.74-4.54s2.45-5.11,6-5.11h2.92a.13.13,0,0,0,.12-.13V99.73c0-2.07-1.06-3.45-3.16-3.45a2.76,2.76,0,0,0-3,2.23c0,.22-.16.28-.35.28l-1.72-.09a.26.26,0,0,1-.28-.32c.28-2.41,2.44-4,5.36-4C96.07,94.34,98.08,96.47,98.08,99.61Zm-2.23,5.89V103a.14.14,0,0,0-.12-.13H92.94c-2.29,0-3.92,1.1-3.92,3.2,0,1.91,1.32,2.73,3,2.73C93.91,108.76,95.85,107.66,95.85,105.5Z"/><path class="cls-5" d="M108.08,96.35h-3a.13.13,0,0,0-.12.12v9.37c0,2,.81,2.64,2.44,2.64H108a.3.3,0,0,1,.32.31v1.32a.29.29,0,0,1-.32.31c-.31,0-.62,0-1,0-2.47,0-4.17-.72-4.17-3.92V96.47a.13.13,0,0,0-.12-.12h-1.57a.3.3,0,0,1-.31-.32V94.9a.29.29,0,0,1,.31-.31h1.57a.13.13,0,0,0,.12-.13V90.89a.3.3,0,0,1,.32-.31h1.53a.3.3,0,0,1,.32.31v3.57a.13.13,0,0,0,.12.13h3a.29.29,0,0,1,.31.31V96A.3.3,0,0,1,108.08,96.35Z"/><path class="cls-5" d="M111.59,90.11a1.56,1.56,0,0,1,1.63-1.6,1.62,1.62,0,0,1,0,3.23A1.56,1.56,0,0,1,111.59,90.11Zm.53,20V94.9a.3.3,0,0,1,.32-.31H114a.3.3,0,0,1,.31.31v15.24a.29.29,0,0,1-.31.31h-1.6A.3.3,0,0,1,112.12,110.14Z"/><path class="cls-5" d="M118.74,106.13a25.42,25.42,0,0,1-.22-3.64,24,24,0,0,1,.22-3.57,5.62,5.62,0,0,1,11,0,30,30,0,0,1,0,7.25,5.61,5.61,0,0,1-11,0Zm8.9-.41c.09-.91.13-2,.13-3.2s0-2.32-.13-3.2a3.4,3.4,0,0,0-6.77,0c-.09.88-.13,2-.13,3.2s0,2.32.13,3.2a3.4,3.4,0,0,0,6.77,0Z"/><path class="cls-5" d="M144.82,99.57v10.57a.29.29,0,0,1-.31.31h-1.6a.3.3,0,0,1-.32-.31V99.89c0-2.2-1.22-3.58-3.13-3.58s-3.26,1.41-3.26,3.64v10.19a.3.3,0,0,1-.32.31h-1.59a.3.3,0,0,1-.32-.31V94.9a.3.3,0,0,1,.32-.31h1.59a.3.3,0,0,1,.32.31v1.16c0,.1.06.16.16.07a4.37,4.37,0,0,1,3.72-1.76C143,94.37,144.82,96.35,144.82,99.57Z"/><path class="cls-5" d="M148.42,106.47v-.28a.3.3,0,0,1,.32-.32h1.5c.19,0,.31.1.31.26v.28c0,1.31,1.29,2.47,3.23,2.47s3-1.09,3-2.53c0-1.7-1.69-2.26-3.54-2.89-2.22-.75-4.76-1.69-4.76-4.67,0-2.69,2.1-4.36,5.17-4.36s5.23,1.82,5.23,4.36v.06a.3.3,0,0,1-.31.32h-1.47c-.19,0-.32-.1-.32-.22v-.22c0-1.38-1.22-2.48-3.13-2.48s-3,1-3,2.42c0,1.63,1.57,2.19,3.45,2.85,2.22.75,4.92,1.69,4.92,4.7,0,2.66-2.07,4.39-5.27,4.39S148.42,108.85,148.42,106.47Z"/><line class="cls-6" x1="186.28" y1="20.3" x2="186.28" y2="140.26"/></svg>