<?xml version="1.0" encoding="utf-8"?>
<!-- Generator: Adobe Illustrator 21.0.2, SVG Export Plug-In . SVG Version: 6.00 Build 0)  -->
<svg version="1.1" id="Capa_1" xmlns="http://www.w3.org/2000/svg" xmlns:xlink="http://www.w3.org/1999/xlink" x="0px" y="0px"
	 viewBox="0 0 386.6 87.2" style="enable-background:new 0 0 386.6 87.2;" xml:space="preserve">
<style type="text/css">
	.st0{fill:#6D6E71;}
	.st1{fill:#00A4E6;}
	.st2{fill:#231F20;}
</style>
<g>
	<g>
		<path class="st0" d="M0,80.1l0.2-1.6l2-0.2c0.4-0.1,0.5-0.2,0.6-0.6l2.5-18.1c0.1-0.5,0-0.6-0.4-0.6L3,58.7l0.2-1.6h15.6L18,62.4
			l-2-0.1L16,59.8c0-0.3-0.2-0.4-0.5-0.4H8.2l-1.1,8h8.3l-0.3,2.3H6.7l-1.1,8.2h8c0.3,0,0.4,0,0.5-0.3l0.9-2.8h2l-0.7,5.4H0z"/>
		<path class="st0" d="M39.8,80.1L39.8,80.1l0.6-4.3l0.8-6c0.1-0.7,0.2-1.6,0.2-2.3c0-1-0.4-1.5-1.3-1.5c-1.6,0-3.4,1.5-5.6,3.5
			l-1.1,8.1c-0.1,0.5,0,0.6,0.4,0.6l1.8,0.3l-0.3,1.6h-5.1l0-0.1l0.6-4.1l0.9-6.2c0.1-1,0.3-1.7,0.3-2.3c0-0.7-0.2-1.5-1.2-1.5
			c-1.8,0-3.5,1.6-5.8,3.6l-1.1,8.1c-0.1,0.5,0,0.6,0.4,0.6l2,0.3L26,80.1h-7.4l0.2-1.6l1.5-0.2c0.4-0.1,0.5-0.2,0.6-0.6l1.5-11.2
			c0.1-0.3,0-0.6-0.3-0.7l-1.7-0.5l0.2-1.5h4.8L25.1,67c2.7-2.3,4.2-3.4,6.4-3.4c2.2,0,3.3,1.1,3.2,3.5c1.7-1.6,3.9-3.5,6.3-3.5
			c2.5,0,3.3,1.2,3.4,3.3c0,0.7-0.1,1.5-0.2,2.3l-1.2,8.6c-0.1,0.5,0,0.6,0.4,0.6l1.7,0.3l-0.2,1.6H39.8z"/>
		<path class="st0" d="M47.6,86.9l-0.1-0.1l0.9-5.4l2-14.9c0.1-0.4,0-0.6-0.3-0.7l-1.7-0.5l0.2-1.5h4.9l-0.4,3
			c1.8-1.6,4-3.3,6.5-3.3c2.5,0,4.4,1.8,4.4,6.2c0,5-2.3,10.8-7.6,10.8c-1.7,0-3.5-0.7-4.7-1.9l-0.8,5.8c-0.1,0.5,0,0.6,0.4,0.6
			l2.9,0.3l-0.2,1.7H47.6z M51.9,76.1c1,1.1,2.4,2.1,4,2.1c3.7,0,5.1-4.8,5.1-8.2c0-2.9-1-3.9-2.4-3.9c-2,0-4.4,2.2-5.8,3.5
			L51.9,76.1z"/>
		<path class="st0" d="M65.9,73.9c0-6,3.1-10.4,9-10.4c4.7,0,6.4,2.9,6.4,6.6c0,6.4-3.1,10.4-8.9,10.4C68,80.5,65.9,77.9,65.9,73.9
			 M78.4,70.1c0-2.9-1.3-4.3-3.8-4.3c-3.4,0-5.8,2.6-5.8,7.9c0,3,1.3,4.6,3.9,4.6C76.1,78.3,78.4,75.7,78.4,70.1"/>
		<path class="st0" d="M97.1,80.1l-1.7-12.7l-5.2,12.7h-3.4l-2.2-13.9c0-0.3-0.2-0.5-0.5-0.5l-1.4-0.3l0.3-1.6h4.2l0.2,0.2l0.3,2.7
			L89,77.2l5.4-13.3h3.2l1.8,13.5l5.1-11.8l-1.9-0.3l0.3-1.6h4.6l0.2,0.4l-7.1,15.9H97.1z"/>
		<path class="st0" d="M120.2,79.2c-1.7,0.9-3.7,1.3-5.7,1.3c-4.6,0-6.2-2.7-6.2-6.5c0-5.8,3.7-10.5,8.9-10.5c3.3,0,4.5,1.7,4.5,3.8
			c0,4.8-6.9,6-10.5,6.4c0,2.8,0.8,4.5,3.9,4.5c1.6,0,3-0.4,4.5-1.2L120.2,79.2z M118.9,67.5c0-1-0.6-1.7-2.1-1.7
			c-2.9,0-4.8,2.6-5.4,5.7C113.5,71.2,118.9,70.4,118.9,67.5"/>
		<path class="st0" d="M122.4,80.1l0.2-1.6l1.6-0.2c0.4,0,0.5-0.2,0.5-0.6l1.6-11.2c0.1-0.3,0-0.6-0.3-0.7l-1.7-0.5l0.2-1.5h4.7
			l-0.4,3.2c1.1-1.5,3.2-3.5,5.3-3.5c0.7,0,1.5,0.1,2,0.3l-0.6,4.8l-2.2-0.1l-0.1-2.2c0-0.3,0-0.3-0.3-0.3c-0.8,0-2.4,1.4-4.2,3.4
			l-1.1,8.3c-0.1,0.5,0,0.6,0.4,0.6l2.8,0.2l-0.2,1.6H122.4z"/>
		<path class="st0" d="M137.8,80.1l-0.1-0.1l0.7-3.7l1.4-9.9c0.1-0.4,0-0.6-0.3-0.7l-1.7-0.4l0.2-1.5h5L141,77.7
			c-0.1,0.5,0,0.6,0.4,0.6l1.9,0.3l-0.2,1.6H137.8z M139.8,58.6c0-1.4,0.9-2.4,2.4-2.4c1.1,0,1.8,0.6,1.8,1.7c0,1.3-0.9,2.4-2.4,2.4
			C140.4,60.3,139.8,59.6,139.8,58.6"/>
		<path class="st0" d="M157.4,80.1L157.4,80.1l0.5-3.9l0.9-6.4c0.1-0.7,0.2-1.4,0.2-2c0-1.1-0.3-1.9-1.6-1.9c-1.8,0-3.7,1.5-6.1,3.6
			l-1.1,8.1c-0.1,0.5,0,0.6,0.4,0.6l2,0.3l-0.2,1.6H145l0.2-1.6l1.5-0.2c0.4-0.1,0.5-0.2,0.6-0.6l1.5-11.2c0.1-0.3,0-0.6-0.3-0.7
			l-1.7-0.5l0.2-1.5h4.8l-0.4,3.1c2-1.7,4.2-3.5,6.7-3.5c2.6,0,3.7,1.3,3.7,3.8c0,0.5-0.1,1.3-0.2,1.9l-1.2,8.5
			c-0.1,0.5,0,0.6,0.4,0.6l1.8,0.3l-0.2,1.6H157.4z"/>
		<path class="st0" d="M176.2,77.2c-1.6,1.6-3.6,3.3-6.1,3.3c-3,0-4.8-1.9-4.8-6c0-4.7,1.9-11,7.9-11c1.9,0,3.6,0.9,4.6,1.8l0.5-1.5
			h2.7c-0.4,1.5-0.7,2.8-0.9,4.2l-1.8,13.2c-0.6,4.1-3.2,6-7,6c-2.9,0-5.2-0.8-6.2-1.4l1-2.1c0.5,0.3,2.5,1.2,4.8,1.2
			c2.6,0,4.2-1.2,4.6-4L176.2,77.2z M177.4,67.6c-0.8-0.9-2.4-1.7-4-1.7c-4,0-5.2,5.1-5.2,8.4c0,2.8,1.1,3.7,2.7,3.7
			c2,0,4.1-2,5.6-3.6L177.4,67.6z"/>
		<path class="st0" d="M210,80.1L210,80.1l0.6-4.3l0.8-6c0.1-0.7,0.2-1.6,0.2-2.3c0-1-0.3-1.5-1.3-1.5c-1.6,0-3.4,1.5-5.6,3.5
			l-1.1,8.1c-0.1,0.5,0,0.6,0.4,0.6l1.8,0.3l-0.3,1.6h-5.1l0-0.1l0.6-4.1l0.9-6.2c0.1-1,0.3-1.7,0.3-2.3c0-0.7-0.2-1.5-1.2-1.5
			c-1.8,0-3.5,1.6-5.8,3.6l-1.1,8.1c-0.1,0.5,0,0.6,0.4,0.6l2,0.3l-0.2,1.6h-7.4l0.2-1.6l1.5-0.2c0.4-0.1,0.5-0.2,0.6-0.6l1.5-11.2
			c0.1-0.3,0-0.6-0.3-0.7l-1.7-0.5l0.2-1.5h4.8l-0.4,3.1c2.7-2.3,4.2-3.4,6.4-3.4c2.2,0,3.3,1.1,3.2,3.5c1.7-1.6,3.9-3.5,6.3-3.5
			c2.5,0,3.3,1.2,3.4,3.3c0,0.7-0.1,1.5-0.2,2.3l-1.2,8.6c-0.1,0.5,0,0.6,0.4,0.6l1.7,0.3l-0.2,1.6H210z"/>
		<path class="st0" d="M218.8,80.1l-0.1-0.1l0.7-3.7l1.4-9.9c0.1-0.4,0-0.6-0.3-0.7l-1.7-0.4l0.2-1.5h5l-1.9,13.9
			c-0.1,0.5,0,0.6,0.4,0.6l1.9,0.3l-0.2,1.6H218.8z M220.8,58.6c0-1.4,0.9-2.4,2.4-2.4c1.1,0,1.8,0.6,1.8,1.7c0,1.3-0.9,2.4-2.4,2.4
			C221.5,60.3,220.8,59.6,220.8,58.6"/>
		<path class="st0" d="M238.4,80.1L238.4,80.1l0.5-3.9l0.9-6.4c0.1-0.7,0.2-1.4,0.2-2c0-1.1-0.3-1.9-1.6-1.9c-1.8,0-3.7,1.5-6.1,3.6
			l-1.1,8.1c-0.1,0.5,0,0.6,0.4,0.6l2,0.3l-0.2,1.6H226l0.2-1.6l1.5-0.2c0.4-0.1,0.5-0.2,0.6-0.6l1.5-11.2c0.1-0.3,0-0.6-0.3-0.7
			l-1.7-0.5l0.2-1.5h4.8l-0.4,3.1c2-1.7,4.2-3.5,6.7-3.5c2.6,0,3.7,1.3,3.7,3.8c0,0.5-0.1,1.3-0.2,1.9l-1.2,8.5
			c-0.1,0.5,0,0.6,0.4,0.6l1.8,0.3l-0.2,1.6H238.4z"/>
		<path class="st0" d="M256.8,80.1l0.4-2.8l-0.1-0.1c-1.7,1.7-3.6,3.3-6,3.3c-3,0-4.8-1.9-4.8-6c0-4.6,1.9-11,7.9-11
			c1.9,0,3.5,0.8,4.5,1.7l0.9-6.4c0-0.3,0-0.5-0.3-0.6l-1.7-0.4l0.2-1.5h5l-3,21.6c-0.1,0.5,0,0.6,0.4,0.6l1.6,0.2l-0.2,1.6H256.8z
			 M258.4,67.6c-0.8-0.9-2.4-1.7-4-1.7c-4,0-5.2,5.1-5.2,8.5c0,2.8,1.1,3.7,2.7,3.7c2,0,4-2,5.6-3.7L258.4,67.6z"/>
		<path class="st0" d="M274.4,68.3l-0.1-2c0-0.3-0.1-0.5-0.4-0.6c-0.5-0.2-1.1-0.2-2.1-0.2c-1.8,0-3.4,0.7-3.4,2.4
			c0,1.5,1.2,2.1,3,2.7c2,0.7,4.5,1.6,4.5,4.6c0,3.4-2.8,5.2-6.4,5.2c-2.9,0-5.2-0.7-5.7-1l0.6-4l2,0.1l0.1,2.1
			c0,0.3,0.1,0.4,0.3,0.5c0.5,0.2,1.4,0.4,2.9,0.4c2.1,0,3.5-1,3.5-2.7c0-1.7-1.2-2.3-3.2-2.9c-2.1-0.7-4.3-1.6-4.3-4.4
			c0-3.4,2.8-5,6.5-5c2.4,0,4.2,0.6,4.9,0.9l-0.6,4.1L274.4,68.3z"/>
		<rect x="0.9" y="3.1" class="st1" width="15.6" height="46.1"/>
		<polygon class="st1" points="49.7,49.2 34.2,49.2 34.2,16.2 22.9,16.2 22.9,3.1 61,3.1 61,16.2 49.7,16.2 		"/>
		<path class="st1" d="M66.8,31.1v-28h15.5v26.3c0,4.4,2.2,7,6.1,7c3.9,0,6.1-2.7,6.1-7V3.1h15.4v28c0,10.9-7.4,19.4-21.8,19.4
			C73.7,50.5,66.8,42.1,66.8,31.1"/>
		<path class="st2" d="M146.3,49.2l-3.6-9h-17.8l-3.4,9h-12.1l19.3-46.1h10.8l19.1,46.1H146.3z M134,15.4l-5.9,15.8h11.6L134,15.4z"
			/>
		<path class="st2" d="M181,27.3c-1.2-1.6-3.5-2.6-5.7-2.6c-4.5,0-7.5,3.8-7.5,8.3c0,4.5,2.9,8.3,7.6,8.3c2.1,0,4.5-0.8,5.8-2.4
			l5.9,7.2c-2.7,2.6-7.2,4.2-12,4.2c-10.2,0-18.2-6.5-18.2-17.2c0-10.5,8-17.2,18.1-17.2c4.6,0,9.5,1.8,12,4.4L181,27.3z"/>
		<path class="st2" d="M187.7,21.2c3.8-3.6,9.2-5.5,14.5-5.5c10.9,0,14.9,5.3,14.9,17.1v16.3h-9.8v-3.5h-0.2
			c-1.6,2.7-5.3,4.2-9.2,4.2c-5.1,0-11.8-2.5-11.8-10.2c0-9.4,11.4-10.9,20.8-10.9v-0.5c0-3.2-2.5-4.7-5.9-4.7c-3.1,0-6.1,1.5-8,3.3
			L187.7,21.2z M207.3,35.1H206c-4.7,0-10,0.6-10,4.4c0,2.5,2.5,3.3,4.6,3.3c4.3,0,6.7-2.6,6.7-6.6V35.1z"/>
		<path class="st2" d="M246.3,49.2V45h-0.1c-2.1,3.3-6.3,5.1-10.6,5.1c-9.8,0-15.4-8.2-15.4-17.2c0-9,5.9-17,15.3-17
			c4.8,0,8.1,2.2,9.9,4.4h0.1V0h10.7v49.2H246.3z M238.1,24.6c-5.1,0-7.7,4.1-7.7,8.3c0,4.2,2.6,8.4,7.7,8.4c4.8,0,7.8-4.1,7.8-8.3
			C245.9,28.8,242.9,24.6,238.1,24.6"/>
		<path class="st2" d="M293.5,35.9H270c0.3,3.6,3.9,6.1,7.7,6.1c3.4,0,5.7-1.4,7.2-3.4l7.4,4.7c-3.1,4.4-8.1,6.9-14.7,6.9
			c-9.8,0-17.8-6.2-17.8-17.1c0-10.6,7.7-17.4,17.5-17.4c9.6,0,16.3,6.6,16.3,17.6C293.5,34.2,293.5,35.2,293.5,35.9 M283.7,29.3
			c0-3.4-2.1-6.2-6.4-6.2c-4.1,0-7.1,2.9-7.4,6.2H283.7z"/>
		<path class="st2" d="M338.3,49.2V31.5c0-3.7-0.8-6.8-4.6-6.8c-3.6,0-5.4,3.4-5.4,7v17.5h-10.7V30.7c0-3.7-1.4-6.1-4.6-6.1
			c-3.4,0-5.3,3.1-5.3,7v17.6h-10.7V16.8h10.3v4.5h0.1c1.5-2.7,4.8-5.4,9.7-5.4c4.7,0,7.9,2,9.8,5.5c2.1-3.4,5.5-5.5,10.4-5.5
			c8.8,0,11.8,7.2,11.8,13.3v20H338.3z"/>
		<path class="st2" d="M372.1,54.1c-2.6,6.8-6.1,10.7-14.3,10.7c-2,0-4.3-0.3-5.9-0.7l1.2-9c1,0.3,2.4,0.6,3.5,0.6
			c3.3,0,4.4-1.6,5.5-4.4l1-2.7l-13.5-31.9h11.8l7.2,20.8h0.2l6.4-20.8h11.3L372.1,54.1z"/>
	</g>
</g>
</svg>
