<svg id="gly_copy_3" data-name="gly copy 3" xmlns="http://www.w3.org/2000/svg" viewBox="0 0 64 64"><title>1</title><path d="M51.52136,42.78833l-3.56976-.32251-1.41748-3.29974a1.12595,1.12595,0,0,0-2.06989,0l-1.41742,3.29974-3.5697.32251a1.1384,1.1384,0,0,0-.645,1.97235l2.70734,2.36237-.795,3.50232a1.12631,1.12631,0,0,0,1.67242,1.2149l3.08234-1.8374,3.08233,1.8374a1.12541,1.12541,0,0,0,1.23743-.06,1.10387,1.10387,0,0,0,.435-1.1549l-.795-3.50232,2.70734-2.36988A1.13377,1.13377,0,0,0,51.52136,42.78833Z"/><path d="M50.7489,17.31207H13.2511A2.25646,2.25646,0,0,0,11.00122,19.562V25.5166a2.24045,2.24045,0,0,0,1.53742,2.12982l17.21148,5.74469v-.89245a2.24988,2.24988,0,1,1,4.49976,0v.89245l17.21148-5.74469a2.24045,2.24045,0,0,0,1.53742-2.12982V19.562A2.25646,2.25646,0,0,0,50.7489,17.31207ZM28.75269,30.60126a.74715.74715,0,0,1-.71247.50995.69365.69365,0,0,1-.23993-.03748L14.51105,26.64148a.7518.7518,0,0,1,.48-1.42493l13.28918,4.43231A.76128.76128,0,0,1,28.75269,30.60126ZM49.489,26.64148,36.19971,31.07373a.69365.69365,0,0,1-.23993.03748.74715.74715,0,0,1-.71247-.50995.76128.76128,0,0,1,.47248-.9524L49.009,25.21655a.7518.7518,0,0,1,.48,1.42493Z"/><path d="M37.09216,43.09583a2.59486,2.59486,0,0,1,2.28742-1.80744l2.63983-.23248,1.06494-2.48236a2.62887,2.62887,0,0,1,4.82971,0L48.979,41.05591l2.33234.21V29.28162L34.24988,34.97375v2.02491a2.24988,2.24988,0,1,1-4.49976,0V34.96625L12.68866,29.28162v17.654a2.999,2.999,0,0,0,2.99982,2.99981H39.36456l.51-2.2724-2.03235-1.76989A2.59654,2.59654,0,0,1,37.09216,43.09583Z"/><path d="M32.74994,36.99841V32.49866a.74994.74994,0,1,0-1.49988,0v4.49975a.74994.74994,0,0,0,1.49988,0Z"/><path d="M20.12067,12.99982H43.87933l.48743,2.81231h3.0448l-.57739-3.32226A2.99495,2.99495,0,0,0,43.87933,10H20.12067a2.99495,2.99495,0,0,0-2.95484,2.48987l-.57739,3.32226h3.0448Z"/><path d="M32,2A30,30,0,1,0,62,32,30.03391,30.03391,0,0,0,32,2Zm0,58.29126A28.29126,28.29126,0,1,1,60.29126,32,28.32323,28.32323,0,0,1,32,60.29126Z"/></svg>