<?xml version="1.0" encoding="utf-8"?><!--Generator: Adobe Illustrator 16.0.4, SVG Export Plug-In . SVG Version: 6.00 Build 0)--><!DOCTYPE svg PUBLIC "-//W3C//DTD SVG 1.1//EN" "http://www.w3.org/Graphics/SVG/1.1/DTD/svg11.dtd"><svg version="1.1" id="Ebene_1" xmlns="http://www.w3.org/2000/svg" xmlns:xlink="http://www.w3.org/1999/xlink" x="0px" y="0px" width="160px" height="30px" viewBox="17.5 3.312 160 30" enable-background="new 17.5 3.312 160 30" xml:space="preserve"><g><path fill="#002B5C" d="M41.188,26.331H21.777v-1.192h1.646c0.288-3.859,3.988-5.295,6.045-8.416c-0.451,0-2.344,0-2.384,0
		c-1.151,0.41-2.879,2.956-2.879,4.433h-3.002l0.041-1.23l-0.987,0.821l-2.631-3.039c0,0-0.123-0.165-0.123-0.287
		c0-0.123,0.041-0.205,0.041-0.205l4.154-5.626l0.739-2.217l1.111-0.411l1.151-1.602l-0.41-2.792c1.11-0.41,2.181-0.042,2.715,0.492
		c0.041-0.821-0.041-1.724-0.041-1.724c1.974-0.205,2.672,0.863,3.001,2.053c0.534,0.041,1.028,0.123,1.482,0.206
		c0.082-0.246,0.329-0.453,0.617-0.453c0.37,0,0.616,0.288,0.616,0.616c0,0.082,0,0.123,0,0.165
		c0.864,0.288,1.686,0.698,2.426,1.149c0.123-0.164,0.288-0.245,0.494-0.245c0.37,0,0.617,0.287,0.617,0.615
		c0,0.166-0.041,0.288-0.123,0.37c0.698,0.575,1.275,1.273,1.81,2.012c0.082-0.041,0.205-0.083,0.288-0.083
		c0.371,0,0.658,0.287,0.658,0.615c0,0.246-0.123,0.451-0.329,0.535c0.411,0.739,0.74,1.561,0.986,2.421
		c0.041-0.041,0.123-0.041,0.166-0.041c0.371,0,0.616,0.288,0.616,0.616s-0.206,0.575-0.453,0.615
		c0.165,0.863,0.288,1.725,0.371,2.627c0.371,0,0.657,0.288,0.657,0.616c0,0.37-0.288,0.615-0.616,0.657
		c0,0.861-0.041,1.807-0.124,2.711c0.329,0.039,0.576,0.327,0.576,0.655c0,0.329-0.289,0.616-0.658,0.616h-0.041
		c-0.164,0.904-0.328,1.806-0.534,2.75h1.727v1.192H41.188z M38.228,25.181c2.386-9.813-0.411-17.614-8.02-18.518
		c0.042,0.41,0.042,0.739,0.042,1.067c0,0.493-0.042,0.904-0.042,0.904l-1.191-0.205c0.04-0.41,0.122-3.203-0.864-3.818
		c0,0,0,1.479-0.328,2.956l-1.111-0.206c0-1.026-0.453-1.437-1.07-1.725l0.288,2.012l-0.7,1.027l0.33,0.943l-2.18,0.739
		l-0.617,1.766l-3.825,5.255l1.44,1.726l1.604-1.355l0.37,0.247v2.012h0.864c0.371-1.438,1.562-3.121,2.674-3.942l-0.617-0.739
		l0.906-0.782l0.864,1.067c0,0,3.084,0,3.084-0.041c0.452-0.984,0.741-2.176,0.741-3.571h1.192c0,4.68-2.344,6.529-5.264,9.403
		c-1.07,1.068-2.016,2.216-2.139,3.777L38.228,25.181L38.228,25.181z M21.079,16.107c0.041,0.533-0.042,1.354-0.329,1.764
		l-0.864-0.328c0.288-0.41,0.452-0.985,0.452-1.479L21.079,16.107z M25.809,11.549l-1.851,0.985l-0.123-1.518l1.933-0.206
		L25.809,11.549z"/><path fill="#F58025" d="M41.188,32.406H21.777v-2.382h19.412V32.406z"/><path fill="#002B5C" d="M54.518,26.659c-1.563,0-2.797-0.37-3.989-0.904c-0.247-1.066-0.33-2.505-0.412-3.982l0.946-0.164
		c0.534,2.012,1.276,3.982,3.742,3.982c1.728,0,2.756-1.067,2.756-2.669c0-4.229-7.032-3.284-7.032-8.171
		c0-2.218,1.81-4.229,5.017-4.229c1.069,0,2.221,0.287,3.372,0.697c0.082,0.863,0.164,1.849,0.205,3.573l-0.863,0.041
		c-0.411-1.438-1.069-3.202-3.166-3.202c-1.562,0-2.344,1.067-2.344,2.34c0,3.899,7.156,3.079,7.156,8.172
		C59.905,24.565,57.726,26.659,54.518,26.659z M66.239,26.494c-0.658-0.042-1.193-0.165-1.522-0.287v3.859
		c0,1.396,0.166,1.52,2.056,1.683v0.78h-5.798v-0.78c1.482-0.164,1.604-0.287,1.604-1.683V19.105c0-1.438-0.041-1.479-1.438-1.603
		v-0.697c1.232-0.246,2.385-0.616,3.577-1.027v1.56l2.221-1.149c0.288-0.165,0.576-0.205,0.864-0.205c2.551,0,3.99,2.215,3.99,4.352
		C71.792,23.784,69.324,26.125,66.239,26.494z M66.774,17.502c-0.658,0-1.521,0.453-2.056,0.78v6.077
		c0.453,0.493,1.193,0.862,2.098,0.862c1.193,0,2.755-0.903,2.755-3.982C69.57,18.652,68.335,17.502,66.774,17.502z M79.605,18.53
		c-0.247-0.329-0.576-0.41-0.987-0.41c-0.534,0-1.193,0.616-1.646,1.889v3.819c0,1.395,0.166,1.52,1.933,1.643v0.821h-5.593V25.47
		c1.399-0.123,1.562-0.247,1.562-1.643v-4.641c0-1.396-0.123-1.396-1.398-1.643v-0.697c1.234-0.247,2.427-0.494,3.496-0.904v2.463
		h0.041c0.741-1.355,1.769-2.422,2.714-2.422c0.823,0,1.399,0.615,1.399,1.273C81.126,18.2,80.14,19.023,79.605,18.53z
		 M87.461,26.289h-5.264v-0.821c1.397-0.123,1.604-0.247,1.604-1.724v-4.436c0-1.601-0.123-1.601-1.481-1.765v-0.698
		c1.275-0.247,2.549-0.535,3.577-0.904v7.801c0,1.478,0.124,1.601,1.563,1.724L87.461,26.289L87.461,26.289z M84.746,13.766
		c-0.781,0-1.398-0.615-1.398-1.396c0-0.822,0.617-1.437,1.398-1.437c0.823,0,1.439,0.615,1.439,1.437
		C86.186,13.151,85.568,13.766,84.746,13.766z M100.045,26.289h-4.854v-0.821c1.151-0.123,1.316-0.247,1.316-1.561v-4.023
		c0-1.479-0.659-2.383-1.893-2.383c-0.781,0-1.685,0.575-2.303,1.149v5.257c0,1.313,0.123,1.437,1.274,1.56v0.821H88.57v-0.821
		c1.397-0.123,1.603-0.246,1.603-1.56v-4.722c0-1.397-0.081-1.479-1.316-1.644v-0.698c1.235-0.247,2.386-0.494,3.455-0.904v1.644
		c0.534-0.452,2.098-1.603,3.29-1.603c1.851,0,3.003,1.274,3.003,3.161v4.762c0,1.314,0.203,1.438,1.438,1.562v0.823H100.045z
		 M111.766,16.518c-0.165,0.369-0.616,1.067-0.985,1.272l-1.194-0.122c0.328,0.451,0.575,1.356,0.575,2.053
		c0,2.505-2.261,3.86-4.317,3.86c-0.124,0-0.453-0.041-0.741-0.041c-0.493,0.164-0.905,0.739-0.905,1.108s0.37,0.821,1.357,0.821
		h2.467c1.439,0,3.372,0.698,3.372,2.997c0,2.628-2.755,4.845-5.963,4.845c-2.797,0-4.278-1.725-4.278-3.12
		c0-0.904,0.454-1.603,2.386-3.079c-0.699-0.247-1.932-0.944-1.851-2.26c0.946-0.41,1.811-1.148,2.18-1.602
		c-1.11-0.37-2.138-1.683-2.138-3.161c0-2.668,2.385-4.105,4.359-4.105c0.863,0,1.686,0.205,2.386,0.575
		c1.067-0.041,2.138-0.165,3.125-0.288L111.766,16.518z M108.518,27.521c-0.575-0.206-1.356-0.246-2.632-0.246
		c-1.768,0-2.551,1.313-2.551,2.3c0,1.396,1.234,2.463,3.085,2.463c2.057,0,3.207-1.354,3.207-2.71
		C109.627,28.466,109.135,27.769,108.518,27.521z M105.886,16.969c-0.863,0-1.851,0.903-1.851,2.627s0.905,2.957,2.138,2.957
		c0.905,0,1.769-0.78,1.769-2.669C107.943,18.282,107.16,16.969,105.886,16.969z M120.403,20.582
		c-0.37,0.041-3.208,0.245-5.798,0.328c0.081,2.709,1.685,3.859,3.289,3.859c0.904,0,1.562-0.246,2.386-1.066l0.536,0.738
		c-1.358,1.684-2.962,2.093-3.704,2.093c-2.92,0-4.605-2.218-4.605-4.845c0-3.203,2.428-5.708,4.854-5.708
		c2.017,0,3.62,1.725,3.62,3.655C120.978,20.253,120.854,20.499,120.403,20.582z M116.907,17.01c-0.945,0-1.934,1.027-2.18,2.792
		l3.536-0.082c0.453,0,0.535-0.124,0.535-0.534C118.799,18.077,118.018,17.01,116.907,17.01z M128.751,18.53
		c-0.288-0.288-0.658-0.41-0.987-0.41c-0.535,0-1.234,0.616-1.686,1.889v3.819c0,1.395,0.165,1.52,1.933,1.643v0.821h-5.636V25.47
		c1.439-0.123,1.565-0.247,1.565-1.643v-4.641c0-1.396-0.082-1.396-1.4-1.643v-0.697c1.318-0.247,2.469-0.494,3.538-0.904v2.463
		h0.041c0.699-1.355,1.726-2.422,2.715-2.422c0.78,0,1.398,0.615,1.398,1.273C130.233,18.2,129.203,19.023,128.751,18.53z"/><path fill="#002B5C" d="M134.109,19.146c0-4.969,2.756-7.638,6.21-7.638c3.412,0,6.003,2.627,6.003,7.391
		c0,5.215-2.962,7.638-6.209,7.638C136.782,26.536,134.109,23.949,134.109,19.146z M135.221,19.146c0,3.079,1.645,6.486,4.934,6.486
		h0.043c3.332,0,4.936-3.326,4.936-6.692c0-2.956-1.441-6.528-4.936-6.528C136.699,12.411,135.221,15.86,135.221,19.146z"/><path fill="#002B5C" d="M150.147,24.852v5.502h-1.149V19.39c0-1.396-0.043-2.34-0.084-3.202h1.069l0.083,1.684
		c0.781-1.312,1.975-1.888,3.455-1.888c2.468,0,4.236,1.971,4.236,5.132c0,3.654-2.138,5.38-4.483,5.38
		C151.917,26.494,150.766,25.878,150.147,24.852z M150.23,19.39c-0.041,0.289-0.083,0.575-0.083,0.863v2.136
		c0,0.245,0,0.533,0.083,0.78c0.412,1.643,1.688,2.422,3.003,2.422c2.221,0,3.373-1.889,3.373-4.435
		c0-2.217-1.111-4.311-3.332-4.311C151.917,16.846,150.601,17.954,150.23,19.39z"/><path fill="#002B5C" d="M160.556,21.075c0.04,3.407,1.768,4.476,3.703,4.476c1.274,0,2.015-0.246,2.631-0.576l0.247,0.863
		c-0.494,0.288-1.521,0.615-3.044,0.615c-2.922,0-4.648-2.134-4.648-5.049c0-3.327,1.851-5.419,4.443-5.419
		c3.166,0,3.781,2.916,3.781,4.433c0,0.247,0,0.452-0.04,0.658L160.556,21.075L160.556,21.075z M160.638,20.212h5.88
		c0-1.683-0.781-3.366-2.796-3.366C161.747,16.846,160.801,18.652,160.638,20.212z"/><path fill="#002B5C" d="M176.39,26.289v-6.118c0-1.725-0.616-3.243-2.592-3.243c-1.315,0-2.468,0.903-2.795,2.177
		c-0.082,0.245-0.122,0.574-0.122,0.903v6.282h-1.152v-7.679c0-0.985-0.043-1.561-0.084-2.422h1.07l0.04,1.601
		c0.577-1.026,1.811-1.806,3.292-1.806c1.15,0,3.454,0.575,3.454,3.982v6.323H176.39z"/></g></svg>