<?xml version="1.0" encoding="utf-8"?>
<!-- Generator: Adobe Illustrator 26.5.0, SVG Export Plug-In . SVG Version: 6.00 Build 0)  -->
<svg version="1.1" id="Layer_1" xmlns="http://www.w3.org/2000/svg" xmlns:xlink="http://www.w3.org/1999/xlink" x="0px" y="0px"
	 viewBox="0 0 661.81 131.85" style="enable-background:new 0 0 661.81 131.85;" xml:space="preserve">
<style type="text/css">
	.st0{fill-rule:evenodd;clip-rule:evenodd;fill:#00609C;}
	.st1{fill:#231F20;}
</style>
<g>
	<polygon class="st0" points="7.38,32.22 7.26,30.42 43.11,30.49 43.11,32.31 7.38,32.22 	"/>
	<polygon class="st0" points="66.04,32.24 66.7,30.5 253.36,30.4 253.05,32.27 66.04,32.24 	"/>
	<polygon class="st0" points="63.54,37.9 65.13,34.2 252.71,34.1 252.04,37.86 63.54,37.9 	"/>
	<polygon class="st0" points="43,37.88 7.97,38 7.66,34.14 43.09,34.14 43,37.88 	"/>
	<polygon class="st0" points="8.23,39.71 43.06,39.81 43,45.15 8.61,45.15 8.23,39.71 	"/>
	<polygon class="st0" points="60.28,45.36 62.76,39.76 251.68,39.67 250.62,45.19 60.28,45.36 	"/>
	<path class="st0" d="M8.89,47.01l34.13,0.13l-0.59,39.41l17.15-39.44L250.3,47.1l-2.54,14.47l-1-1.28
		c-6.96-7.88-18.56-12.19-25.35-6.1c-5.5,6.7,8.91,11.12,14.28,15.74c4.78,4.11,6.48,6.82,7.66,10c0.82,2.2,1.58,4.92,1.01,9.49
		c-2.47,19.65-20.1,28.46-37.76,32.06c-3.1,0.63-3.03,0.8-15.09,0.46c-6.94-0.19-13.29-2.06-19.66-3.44l6.33-29.09
		c8.05,6.62,18.78,15.13,29.46,6.45c2.25-4.34,1.07-5.39-1.78-8.76c-1.08-0.84-1.9-1.55-3.13-2.36c-4.89-3.22-9.5-5.37-12.4-8.72
		c-3.1-3.57-5.35-7.81-5.53-14.36c-0.08-3.24,1.09-5.74,1.67-8.61h-32.35l-14.72,67.37l-34.65,0.17L119.51,53l-27.69,0.02
		l-40.44,67.25l-35.58,0.33L8.89,47.01L8.89,47.01z"/>
	<polygon class="st0" points="7,28.88 7,6 9.4,6 9.4,28.88 7,28.88 	"/>
	<polygon class="st0" points="11.71,28.88 11.71,6 20.57,6 20.57,9.87 14.12,9.87 14.12,14.94 20.11,14.94 20.11,18.79 14.12,18.79 
		14.12,25.02 20.79,25.02 20.79,28.88 11.71,28.88 	"/>
	<polygon class="st0" points="22.83,28.88 22.83,6 31.69,6 31.69,9.87 25.24,9.87 25.24,14.94 31.23,14.94 31.23,18.79 25.24,18.79 
		25.24,25.02 31.91,25.02 31.91,28.88 22.83,28.88 	"/>
	<polygon class="st0" points="33.95,28.88 33.95,6 42.81,6 42.81,9.87 36.36,9.87 36.36,14.94 42.35,14.94 42.35,18.79 36.36,18.79 
		36.36,25.02 43.03,25.02 43.03,28.88 33.95,28.88 	"/>
</g>
<rect x="269.55" y="4.37" width="1.27" height="120"/>
<g>
	<path class="st1" d="M289.96,30.68h3.14v24.04h-3.14V30.68z"/>
	<path class="st1" d="M313.09,33.23h-9.79v8.04h8.76v2.59h-8.76v8.28h9.79v2.59h-12.93V30.64h12.93V33.23z"/>
	<path class="st1" d="M332.51,33.23h-9.79v8.04h8.76v2.59h-8.76v8.28h9.79v2.59h-12.93V30.64h12.93V33.23z"/>
	<path class="st1" d="M351.92,33.23h-9.79v8.04h8.76v2.59h-8.76v8.28h9.79v2.59h-12.93V30.64h12.93V33.23z"/>
	<path class="st1" d="M385.88,30.68h3.31l-9.07,24.04h-3.62l-9.07-24.04h3.34l7.55,20.73L385.88,30.68z"/>
	<path class="st1" d="M402.53,55.02c-5.38,0-9.35-3.79-9.35-9.79c0-5.97,3.83-9.72,9.35-9.72c5.48,0,9.07,3.86,9.07,9.04
		c0,0.69-0.03,1.24-0.1,1.9h-15.1c0.24,3.83,2.93,5.93,6.14,5.93c2.83,0,4.62-1.45,5.31-3.48h3.38
		C410.26,52.33,407.22,55.02,402.53,55.02z M396.43,43.89h11.93c0.03-3.69-2.72-5.72-5.97-5.72
		C399.33,38.16,396.77,40.2,396.43,43.89z"/>
	<path class="st1" d="M417.46,29.2h3.14v9.34c1.24-2,3.59-3.07,6.24-3.07c4.21,0,7.55,2.69,7.55,8.1v11.14h-3.1V44.02
		c0-3.86-2.1-5.83-5.28-5.83c-3.21,0-5.42,2-5.42,6.07v10.45h-3.14V29.2z"/>
	<path class="st1" d="M440.74,30.61c0-1.21,0.93-2.14,2.14-2.14c1.14,0,2.07,0.93,2.07,2.14s-0.93,2.14-2.07,2.14
		C441.67,32.75,440.74,31.82,440.74,30.61z M441.25,35.82h3.14v18.9h-3.14V35.82z"/>
	<path class="st1" d="M459.49,35.51c4.69,0,7.76,2.41,8.72,6.38h-3.38c-0.66-2.28-2.55-3.72-5.34-3.72c-3.45,0-6,2.45-6,7.07
		c0,4.69,2.55,7.14,6,7.14c2.79,0,4.66-1.34,5.34-3.72h3.38c-0.97,3.76-4.04,6.38-8.72,6.38c-5.38,0-9.21-3.79-9.21-9.79
		C450.29,39.3,454.11,35.51,459.49,35.51z"/>
	<path class="st1" d="M490.87,54.71h-3.14v-2.79c-1.21,1.97-3.52,3.07-6.04,3.07c-4.35,0-7.76-2.69-7.76-8.1V35.82h3.1v10.66
		c0,3.83,2.1,5.79,5.28,5.79c3.24,0,5.42-2,5.42-6.07V35.82h3.14V54.71z"/>
	<path class="st1" d="M497.9,29.2h3.14v25.52h-3.14V29.2z"/>
	<path class="st1" d="M515.9,35.51c3.52,0,5.93,1.79,7.03,3.76v-3.45h3.17v18.9h-3.17V51.2c-1.14,2.04-3.59,3.83-7.07,3.83
		c-5.03,0-8.93-3.97-8.93-9.83C506.94,39.3,510.83,35.51,515.9,35.51z M516.52,38.23c-3.45,0-6.38,2.52-6.38,6.97
		c0,4.45,2.93,7.07,6.38,7.07c3.45,0,6.41-2.59,6.41-7.04C522.94,40.85,519.97,38.23,516.52,38.23z"/>
	<path class="st1" d="M536.28,54.71h-3.14v-18.9h3.14v3.07c1.07-2.1,3.1-3.41,6.1-3.41v3.24h-0.83c-3,0-5.28,1.34-5.28,5.72V54.71z"
		/>
	<path class="st1" d="M288.47,76.66h16.28v2.55h-6.55v21.48h-3.14V79.21h-6.59V76.66z"/>
	<path class="st1" d="M318.51,101c-5.38,0-9.35-3.79-9.35-9.79c0-5.97,3.83-9.72,9.35-9.72c5.48,0,9.07,3.86,9.07,9.04
		c0,0.69-0.03,1.24-0.1,1.9h-15.1c0.24,3.83,2.93,5.93,6.14,5.93c2.83,0,4.62-1.45,5.31-3.48h3.38
		C326.23,98.31,323.2,101,318.51,101z M312.4,89.86h11.93c0.03-3.69-2.72-5.72-5.97-5.72C315.3,84.14,312.75,86.17,312.4,89.86z"/>
	<path class="st1" d="M341.47,81.48c4.69,0,7.76,2.41,8.72,6.38h-3.38c-0.66-2.28-2.55-3.72-5.34-3.72c-3.45,0-6,2.45-6,7.07
		c0,4.69,2.55,7.14,6,7.14c2.79,0,4.66-1.34,5.34-3.72h3.38c-0.97,3.76-4.04,6.38-8.72,6.38c-5.38,0-9.21-3.79-9.21-9.79
		C332.26,85.28,336.09,81.48,341.47,81.48z"/>
	<path class="st1" d="M356.09,75.17h3.14v9.34c1.24-2,3.59-3.07,6.24-3.07c4.21,0,7.55,2.69,7.55,8.1v11.14h-3.1V90
		c0-3.86-2.1-5.83-5.28-5.83c-3.21,0-5.41,2-5.41,6.07v10.45h-3.14V75.17z"/>
	<path class="st1" d="M393.71,90c0-3.86-2.1-5.83-5.28-5.83c-3.21,0-5.42,2-5.42,6.07v10.45h-3.14V81.8h3.14v2.69
		c1.24-1.97,3.52-3.03,6.07-3.03c4.38,0,7.72,2.69,7.72,8.1v11.14h-3.1V90z"/>
	<path class="st1" d="M411.92,101c-5.35,0-9.42-3.79-9.42-9.79c0-5.97,4.21-9.72,9.55-9.72c5.38,0,9.55,3.76,9.55,9.72
		C421.61,97.21,417.29,101,411.92,101z M411.92,98.24c3.28,0,6.48-2.24,6.48-7.04c0-4.76-3.14-7-6.38-7c-3.31,0-6.31,2.24-6.31,7
		C405.71,96,408.64,98.24,411.92,98.24z"/>
	<path class="st1" d="M427.46,75.17h3.14v25.52h-3.14V75.17z"/>
	<path class="st1" d="M445.91,101c-5.35,0-9.42-3.79-9.42-9.79c0-5.97,4.21-9.72,9.55-9.72c5.38,0,9.55,3.76,9.55,9.72
		C455.6,97.21,451.29,101,445.91,101z M445.91,98.24c3.28,0,6.48-2.24,6.48-7.04c0-4.76-3.14-7-6.38-7c-3.31,0-6.31,2.24-6.31,7
		C439.71,96,442.64,98.24,445.91,98.24z"/>
	<path class="st1" d="M469.25,81.48c3.45,0,5.93,1.72,7.03,3.76V81.8h3.17v19.31c0,5.21-3.48,8.9-9.04,8.9
		c-4.97,0-8.52-2.52-9.14-6.55h3.1c0.69,2.28,2.93,3.83,6.03,3.83c3.35,0,5.86-2.14,5.86-6.17v-3.97c-1.14,2.03-3.59,3.86-7.03,3.86
		c-5.07,0-8.97-3.97-8.97-9.83C460.29,85.28,464.19,81.48,469.25,81.48z M469.87,84.21c-3.45,0-6.38,2.52-6.38,6.97
		c0,4.45,2.93,7.07,6.38,7.07c3.45,0,6.41-2.59,6.41-7.04C476.29,86.83,473.32,84.21,469.87,84.21z"/>
	<path class="st1" d="M499.53,81.8h3.24l-11.38,27.79h-3.24l3.72-9.1l-7.62-18.69h3.48l5.93,15.31L499.53,81.8z"/>
	<path class="st1" d="M526.18,100.93c-4.83,0-8.24-2.69-8.31-6.66h3.34c0.21,2,1.62,4,4.97,4c3.04,0,4.83-1.72,4.83-4
		c0-6.48-13-2.34-13-11.28c0-3.97,3.21-6.66,7.97-6.66c4.59,0,7.59,2.52,7.97,6.17h-3.45c-0.21-1.62-1.72-3.45-4.66-3.48
		c-2.59-0.07-4.62,1.28-4.62,3.86c0,6.21,12.97,2.34,12.97,11.24C534.18,97.55,531.39,100.93,526.18,100.93z"/>
	<path class="st1" d="M548.77,101c-5.35,0-9.42-3.79-9.42-9.79c0-5.97,4.21-9.72,9.55-9.72c5.38,0,9.55,3.76,9.55,9.72
		C558.46,97.21,554.14,101,548.77,101z M548.77,98.24c3.28,0,6.48-2.24,6.48-7.04c0-4.76-3.14-7-6.38-7c-3.31,0-6.31,2.24-6.31,7
		C542.56,96,545.49,98.24,548.77,98.24z"/>
	<path class="st1" d="M572.35,81.48c4.69,0,7.76,2.41,8.72,6.38h-3.38c-0.66-2.28-2.55-3.72-5.34-3.72c-3.45,0-6,2.45-6,7.07
		c0,4.69,2.55,7.14,6,7.14c2.79,0,4.66-1.34,5.34-3.72h3.38c-0.97,3.76-4.04,6.38-8.72,6.38c-5.38,0-9.21-3.79-9.21-9.79
		C563.14,85.28,566.97,81.48,572.35,81.48z"/>
	<path class="st1" d="M586.45,76.59c0-1.21,0.93-2.14,2.14-2.14c1.14,0,2.07,0.93,2.07,2.14s-0.93,2.14-2.07,2.14
		C587.38,78.73,586.45,77.8,586.45,76.59z M586.97,81.8h3.14v18.9h-3.14V81.8z"/>
	<path class="st1" d="M605.35,101c-5.38,0-9.35-3.79-9.35-9.79c0-5.97,3.83-9.72,9.35-9.72c5.48,0,9.07,3.86,9.07,9.04
		c0,0.69-0.03,1.24-0.1,1.9h-15.1c0.24,3.83,2.93,5.93,6.14,5.93c2.83,0,4.62-1.45,5.31-3.48h3.38
		C613.07,98.31,610.04,101,605.35,101z M599.24,89.86h11.93c0.03-3.69-2.72-5.72-5.97-5.72C602.14,84.14,599.59,86.17,599.24,89.86z
		"/>
	<path class="st1" d="M620.96,84.38h-2.45V81.8h2.45v-4.76h3.14v4.76h4.93v2.59h-4.93v11.14c0,1.86,0.69,2.52,2.62,2.52h2.31v2.66
		h-2.83c-3.35,0-5.24-1.38-5.24-5.17V84.38z"/>
	<path class="st1" d="M647.59,81.8h3.24l-11.38,27.79h-3.24l3.72-9.1l-7.62-18.69h3.48l5.93,15.31L647.59,81.8z"/>
</g>
</svg>
